<?xml version="1.0" encoding="UTF-8" standalone="no"?>
<!DOCTYPE svg PUBLIC "-//W3C//DTD SVG 1.1//EN" "http://www.w3.org/Graphics/SVG/1.1/DTD/svg11.dtd">
<svg width="100%" height="100%" viewBox="0 0 135 40" version="1.1" xmlns="http://www.w3.org/2000/svg" xmlns:xlink="http://www.w3.org/1999/xlink" xml:space="preserve" xmlns:serif="http://www.serif.com/" style="fill-rule:evenodd;clip-rule:evenodd;stroke-linejoin:round;stroke-miterlimit:1.41421;">
    <g transform="matrix(0.288663,0,0,0.288663,-30.0657,-29.1218)">
        <path d="M233.704,189.527L232.788,192.025C231.705,194.939 232.455,196.771 235.286,197.936C237.867,199.019 243.032,200.018 248.036,200.018C258.958,200.018 271.698,194.273 271.698,178.603L271.698,144.195C271.698,141.195 270.116,139.611 267.118,139.611L263.204,139.611C260.207,139.611 258.624,141.195 258.624,143.195L258.624,143.361C258.624,143.861 258.708,144.195 258.708,144.195L258.541,144.195C258.541,144.19 255.958,138.611 246.785,138.611C233.371,138.611 227.125,148.769 227.125,159.689C227.125,170.694 233.537,181.268 246.701,181.268C251.788,181.268 254.873,179.436 257.208,176.022L257.375,176.022C257.375,176.022 257.292,177.105 257.292,177.604L257.292,179.769C257.292,186.109 252.622,188.028 247.202,188.028C243.866,188.028 241.615,187.527 239.533,186.86C236.452,185.858 234.786,186.693 233.704,189.527ZM249.87,169.278C244.116,169.278 241.615,164.525 241.615,159.189C241.615,154.27 244.2,150.601 249.286,150.601C253.623,150.601 257.625,152.269 257.625,159.856C257.625,167.36 253.623,169.278 249.87,169.278Z" style="fill-opacity:0.556863;fill-rule:nonzero;"/>
        <path d="M273.209,170.442C273.209,177.857 278.954,183.518 287.198,183.518C295.788,183.518 299.875,176.691 299.875,176.691L300.042,176.691C300.042,176.691 299.959,177.024 299.959,177.524L299.959,177.857C299.958,181.019 301.54,182.518 304.538,182.518L308.535,182.518C311.533,182.518 313.115,180.936 313.115,177.939L313.115,156.111C313.115,145.189 305.787,138.611 293.954,138.611C287.782,138.611 282.785,140.443 279.537,141.942C276.956,143.274 276.456,145.522 277.705,148.103L278.704,150.184C280.037,152.856 282.119,153.357 284.867,152.188C287.032,151.186 289.867,150.268 292.62,150.268C295.789,150.268 298.709,151.437 298.709,155.027L298.709,155.778L297.457,155.778C286.865,155.778 273.209,158.941 273.209,170.442ZM287.448,169.107C287.448,165.186 293.12,164.018 297.541,164.018L298.875,164.018L298.875,165.186C298.875,168.69 295.706,172.778 291.535,172.778C288.866,172.778 287.448,171.109 287.448,169.107Z" style="fill-opacity:0.556863;fill-rule:nonzero;"/>
        <path d="M316.792,177.934C316.792,180.934 318.374,182.518 321.372,182.518L326.618,182.518C329.616,182.518 331.198,180.934 331.198,177.934L331.198,164.351C331.198,158.434 332.866,151.684 339.456,151.684C342.208,151.684 342.792,153.934 342.792,157.101L342.792,177.934C342.792,180.934 344.374,182.518 347.372,182.518L352.618,182.518C355.616,182.518 357.198,180.934 357.198,177.934L357.198,164.351C357.198,157.934 359.2,151.684 365.456,151.684C368.208,151.684 368.792,153.934 368.792,157.101L368.792,177.934C368.792,180.934 370.374,182.518 373.372,182.518L378.618,182.518C381.616,182.518 383.198,180.934 383.198,177.934L383.198,154.684C383.198,142.858 377.119,138.611 369.291,138.611C362.87,138.611 357.782,142.275 355.533,145.856L355.366,145.856C353.118,141.026 348.788,138.611 343.375,138.611C336.62,138.611 332.616,143.025 330.615,146.022L330.449,146.022C330.449,146.022 330.532,145.356 330.532,144.94L330.532,144.19C330.532,141.193 329.033,139.611 326.035,139.611L321.372,139.611C318.374,139.611 316.792,141.193 316.792,144.191L316.792,177.934Z" style="fill-opacity:0.556863;fill-rule:nonzero;"/>
        <path d="M384.542,161.021C384.542,172.444 392.792,183.518 408.125,183.518C414.707,183.518 419.786,181.436 422.868,179.688C425.366,178.272 425.782,176.024 424.45,173.443L423.284,171.278C421.868,168.607 419.87,168.274 417.122,169.525C414.957,170.61 412.209,171.528 409.292,171.528C404.709,171.528 400.375,169.108 399.292,163.851L421.868,163.851C424.7,163.851 426.698,161.354 426.698,159.107C426.698,147.603 419.62,138.611 406.875,138.611C393.042,138.611 384.542,148.435 384.542,161.021ZM399.625,155.611C400.375,152.189 402.375,149.184 406.542,149.184C410.209,149.184 412.459,152.106 412.459,155.611L399.625,155.611Z" style="fill-opacity:0.556863;fill-rule:nonzero;"/>
        <path d="M428.542,177.934C428.542,180.934 430.124,182.518 433.122,182.518L438.368,182.518C441.366,182.518 442.948,180.934 442.948,177.934L442.948,163.184C442.948,156.601 446.034,151.684 452.288,151.684C455.457,151.684 457.042,153.351 457.042,157.351L457.042,177.934C457.042,180.934 458.624,182.518 461.622,182.518L466.868,182.518C469.866,182.518 471.448,180.934 471.448,177.934L471.448,154.684C471.448,142.608 464.703,138.611 456.041,138.611C450.37,138.611 445.367,141.193 442.948,145.439L442.782,145.439C442.782,145.439 442.948,143.941 442.948,141.776L442.948,127.528C442.948,124.528 441.366,122.945 438.368,122.945L433.122,122.945C430.124,122.945 428.542,124.528 428.542,127.528L428.542,177.934Z" style="fill-opacity:0.556863;fill-rule:nonzero;"/>
        <path d="M474.709,167.445C474.709,179.521 481.454,183.518 489.949,183.518C495.703,183.518 501.041,180.687 503.375,176.107L503.541,176.107C503.541,176.107 503.458,176.773 503.458,177.189L503.458,177.939C503.458,180.936 504.957,182.518 507.955,182.518L512.618,182.518C515.616,182.518 517.198,180.936 517.198,177.938L517.198,144.195C517.198,141.195 515.616,139.611 512.618,139.611L507.372,139.611C504.374,139.611 502.792,141.195 502.792,144.195L502.792,158.611C502.792,165.028 499.873,170.445 493.702,170.445C490.699,170.445 489.115,168.778 489.115,164.778L489.115,144.195C489.115,141.195 487.533,139.611 484.535,139.611L479.289,139.611C476.291,139.611 474.709,141.195 474.709,144.195L474.709,167.445Z" style="fill-opacity:0.556863;fill-rule:nonzero;"/>
        <path d="M521.625,177.939C521.625,180.936 523.207,182.518 526.205,182.518L530.286,182.518C533.283,182.518 534.866,180.936 534.866,178.688L534.866,178.355C534.866,177.856 534.782,177.523 534.782,177.523L534.949,177.523C534.949,177.523 538.116,183.518 547.205,183.518C558.288,183.518 566.948,174.692 566.948,160.856C566.948,147.77 559.12,138.611 547.872,138.611C539.867,138.611 536.031,144.023 536.031,144.023L535.865,144.023C535.865,144.023 536.031,142.525 536.031,140.36L536.031,127.528C536.031,124.528 534.449,122.945 531.451,122.945L526.205,122.945C523.207,122.945 521.625,124.528 521.625,127.528L521.625,177.939ZM535.615,160.939C535.615,154.103 539.701,150.768 544.12,150.768C549.04,150.768 552.459,155.02 552.459,161.273C552.459,167.943 548.623,171.611 543.87,171.611C538.45,171.611 535.615,166.692 535.615,160.939Z" style="fill-opacity:0.556863;fill-rule:nonzero;"/>
    </g>
    <g transform="matrix(0.288663,0,0,0.288663,-30.0657,-29.7151)">
        <path d="M233.704,189.527L232.788,192.025C231.705,194.939 232.455,196.771 235.286,197.936C237.867,199.019 243.032,200.018 248.036,200.018C258.958,200.018 271.698,194.273 271.698,178.603L271.698,144.195C271.698,141.195 270.116,139.611 267.118,139.611L263.204,139.611C260.207,139.611 258.624,141.195 258.624,143.195L258.624,143.361C258.624,143.861 258.708,144.195 258.708,144.195L258.541,144.195C258.541,144.19 255.958,138.611 246.785,138.611C233.371,138.611 227.125,148.769 227.125,159.689C227.125,170.694 233.537,181.268 246.701,181.268C251.788,181.268 254.873,179.436 257.208,176.022L257.375,176.022C257.375,176.022 257.292,177.105 257.292,177.604L257.292,179.769C257.292,186.109 252.622,188.028 247.202,188.028C243.866,188.028 241.615,187.527 239.533,186.86C236.452,185.858 234.786,186.693 233.704,189.527ZM249.87,169.278C244.116,169.278 241.615,164.525 241.615,159.189C241.615,154.27 244.2,150.601 249.286,150.601C253.623,150.601 257.625,152.269 257.625,159.856C257.625,167.36 253.623,169.278 249.87,169.278Z" style="fill:url(#_Linear1);fill-rule:nonzero;"/>
        <path d="M273.209,170.442C273.209,177.857 278.954,183.518 287.198,183.518C295.788,183.518 299.875,176.691 299.875,176.691L300.042,176.691C300.042,176.691 299.959,177.024 299.959,177.524L299.959,177.857C299.958,181.019 301.54,182.518 304.538,182.518L308.535,182.518C311.533,182.518 313.115,180.936 313.115,177.939L313.115,156.111C313.115,145.189 305.787,138.611 293.954,138.611C287.782,138.611 282.785,140.443 279.537,141.942C276.956,143.274 276.456,145.522 277.705,148.103L278.704,150.184C280.037,152.856 282.119,153.357 284.867,152.188C287.032,151.186 289.867,150.268 292.62,150.268C295.789,150.268 298.709,151.437 298.709,155.027L298.709,155.778L297.457,155.778C286.865,155.778 273.209,158.941 273.209,170.442ZM287.448,169.107C287.448,165.186 293.12,164.018 297.541,164.018L298.875,164.018L298.875,165.186C298.875,168.69 295.706,172.778 291.535,172.778C288.866,172.778 287.448,171.109 287.448,169.107Z" style="fill:url(#_Linear2);fill-rule:nonzero;"/>
        <path d="M316.792,177.934C316.792,180.934 318.374,182.518 321.372,182.518L326.618,182.518C329.616,182.518 331.198,180.934 331.198,177.934L331.198,164.351C331.198,158.434 332.866,151.684 339.456,151.684C342.208,151.684 342.792,153.934 342.792,157.101L342.792,177.934C342.792,180.934 344.374,182.518 347.372,182.518L352.618,182.518C355.616,182.518 357.198,180.934 357.198,177.934L357.198,164.351C357.198,157.934 359.2,151.684 365.456,151.684C368.208,151.684 368.792,153.934 368.792,157.101L368.792,177.934C368.792,180.934 370.374,182.518 373.372,182.518L378.618,182.518C381.616,182.518 383.198,180.934 383.198,177.934L383.198,154.684C383.198,142.858 377.119,138.611 369.291,138.611C362.87,138.611 357.782,142.275 355.533,145.856L355.366,145.856C353.118,141.026 348.788,138.611 343.375,138.611C336.62,138.611 332.616,143.025 330.615,146.022L330.449,146.022C330.449,146.022 330.532,145.356 330.532,144.94L330.532,144.19C330.532,141.193 329.033,139.611 326.035,139.611L321.372,139.611C318.374,139.611 316.792,141.193 316.792,144.191L316.792,177.934Z" style="fill:url(#_Linear3);fill-rule:nonzero;"/>
        <path d="M384.542,161.021C384.542,172.444 392.792,183.518 408.125,183.518C414.707,183.518 419.786,181.436 422.868,179.688C425.366,178.272 425.782,176.024 424.45,173.443L423.284,171.278C421.868,168.607 419.87,168.274 417.122,169.525C414.957,170.61 412.209,171.528 409.292,171.528C404.709,171.528 400.375,169.108 399.292,163.851L421.868,163.851C424.7,163.851 426.698,161.354 426.698,159.107C426.698,147.603 419.62,138.611 406.875,138.611C393.042,138.611 384.542,148.435 384.542,161.021ZM399.625,155.611C400.375,152.189 402.375,149.184 406.542,149.184C410.209,149.184 412.459,152.106 412.459,155.611L399.625,155.611Z" style="fill:url(#_Linear4);fill-rule:nonzero;"/>
        <path d="M428.542,177.934C428.542,180.934 430.124,182.518 433.122,182.518L438.368,182.518C441.366,182.518 442.948,180.934 442.948,177.934L442.948,163.184C442.948,156.601 446.034,151.684 452.288,151.684C455.457,151.684 457.042,153.351 457.042,157.351L457.042,177.934C457.042,180.934 458.624,182.518 461.622,182.518L466.868,182.518C469.866,182.518 471.448,180.934 471.448,177.934L471.448,154.684C471.448,142.608 464.703,138.611 456.041,138.611C450.37,138.611 445.367,141.193 442.948,145.439L442.782,145.439C442.782,145.439 442.948,143.941 442.948,141.776L442.948,127.528C442.948,124.528 441.366,122.945 438.368,122.945L433.122,122.945C430.124,122.945 428.542,124.528 428.542,127.528L428.542,177.934Z" style="fill:url(#_Linear5);fill-rule:nonzero;"/>
        <path d="M474.709,167.445C474.709,179.521 481.454,183.518 489.949,183.518C495.703,183.518 501.041,180.687 503.375,176.107L503.541,176.107C503.541,176.107 503.458,176.773 503.458,177.189L503.458,177.939C503.458,180.936 504.957,182.518 507.955,182.518L512.618,182.518C515.616,182.518 517.198,180.936 517.198,177.938L517.198,144.195C517.198,141.195 515.616,139.611 512.618,139.611L507.372,139.611C504.374,139.611 502.792,141.195 502.792,144.195L502.792,158.611C502.792,165.028 499.873,170.445 493.702,170.445C490.699,170.445 489.115,168.778 489.115,164.778L489.115,144.195C489.115,141.195 487.533,139.611 484.535,139.611L479.289,139.611C476.291,139.611 474.709,141.195 474.709,144.195L474.709,167.445Z" style="fill:url(#_Linear6);fill-rule:nonzero;"/>
        <path d="M521.625,177.939C521.625,180.936 523.207,182.518 526.205,182.518L530.286,182.518C533.283,182.518 534.866,180.936 534.866,178.688L534.866,178.355C534.866,177.856 534.782,177.523 534.782,177.523L534.949,177.523C534.949,177.523 538.116,183.518 547.205,183.518C558.288,183.518 566.948,174.692 566.948,160.856C566.948,147.77 559.12,138.611 547.872,138.611C539.867,138.611 536.031,144.023 536.031,144.023L535.865,144.023C535.865,144.023 536.031,142.525 536.031,140.36L536.031,127.528C536.031,124.528 534.449,122.945 531.451,122.945L526.205,122.945C523.207,122.945 521.625,124.528 521.625,127.528L521.625,177.939ZM535.615,160.939C535.615,154.103 539.701,150.768 544.12,150.768C549.04,150.768 552.459,155.02 552.459,161.273C552.459,167.943 548.623,171.611 543.87,171.611C538.45,171.611 535.615,166.692 535.615,160.939Z" style="fill:url(#_Linear7);fill-rule:nonzero;"/>
    </g>
    <g transform="matrix(0.124813,0,0,0.124813,0.824705,3.958)">
        <path d="M17.034,202.966C9.313,193.485 4.681,181.389 4.681,168.221L4.681,58.061C4.682,27.662 29.361,2.982 59.761,2.981L169.92,2.981C189.35,2.982 206.443,13.063 216.249,28.276C223.97,37.757 228.602,49.853 228.602,63.022L228.602,118.101L198.101,118.101C198.1,131.668 187.087,142.68 173.522,142.68C164.244,142.68 156.159,137.528 151.976,129.93C148.939,126.686 146.771,122.619 145.843,118.101L118.442,118.101L118.442,148.602C104.877,148.602 93.864,159.616 93.864,173.181C93.864,177.468 94.964,181.5 96.897,185.01C101.383,189.803 107.764,192.799 114.84,192.799L118.442,197.76L118.442,228.261L63.363,228.261C43.934,228.261 26.84,218.179 17.034,202.966Z" style="fill:rgb(22,22,22);fill-opacity:0.356863;"/>
        <g transform="matrix(0.986833,0,0,0.986833,8.50503,11.4049)">
            <circle cx="51.94" cy="103.093" r="24.907" style="fill:rgb(176,133,133);"/>
        </g>
        <path d="M224.815,54.398L225,58.061L225,113.141L194.499,113.141C194.456,126.749 183.459,137.72 169.92,137.72C156.355,137.72 145.341,126.706 145.341,113.141L114.84,113.141L114.84,82.64L114.84,2.981L169.92,2.981C198.973,2.982 222.801,25.523 224.792,54.062L224.815,54.398ZM117.352,82.513L117.335,82.514L117.352,82.513L117.543,82.492L117.352,82.513ZM118.803,82.321C118.425,82.383 118.044,82.435 117.661,82.479L117.969,82.442C118.249,82.407 118.527,82.366 118.803,82.321ZM120.388,82.01C119.893,82.124 119.392,82.224 118.886,82.308L119.189,82.256C119.592,82.183 119.992,82.101 120.388,82.01ZM121.152,81.82C120.968,81.869 120.783,81.916 120.598,81.96C120.783,81.916 120.968,81.869 121.152,81.82ZM123.849,80.934C123.043,81.252 122.216,81.529 121.371,81.761C122.216,81.528 123.043,81.252 123.849,80.934ZM124.127,80.822C124.22,80.784 124.312,80.746 124.404,80.707L124.127,80.822ZM128.579,78.44C128.252,78.661 127.919,78.874 127.581,79.079C128.004,78.822 128.418,78.553 128.823,78.272L128.579,78.44ZM134.718,72.513C133.577,74.079 132.255,75.506 130.783,76.762C132.255,75.506 133.577,74.079 134.718,72.513ZM136.011,70.548C135.756,70.98 135.487,71.403 135.206,71.818C135.432,71.485 135.649,71.146 135.859,70.802L136.011,70.548ZM216.142,53.648L139.002,53.648C139.044,53.866 139.084,54.084 139.12,54.304C139.084,54.084 139.044,53.866 139.002,53.648L216.142,53.648C216.849,53.648 217.553,53.661 218.254,53.689C217.553,53.661 216.85,53.648 216.142,53.648ZM219.484,53.752C220.743,53.832 221.99,53.959 223.222,54.137L222.955,54.099C221.81,53.94 220.652,53.826 219.484,53.752ZM136.451,69.773C138.344,66.29 139.419,62.3 139.419,58.061C139.419,57.212 139.376,56.374 139.288,55.548C139.376,56.374 139.419,57.212 139.419,58.061C139.419,62.406 138.289,66.49 136.307,70.033L136.451,69.773ZM224.262,54.3C224.358,54.317 224.454,54.333 224.55,54.35L224.286,54.304L224.262,54.3Z" style="fill:rgb(239,88,78);"/>
        <g transform="matrix(1.04914,0,0,1.04914,2.58272,-0.241546)">
            <path d="M107,3.072L159.5,3.072C187.3,3.072 210.082,24.727 211.823,52.08C209.14,51.588 206.374,51.366 203.557,51.366L130.03,51.366C130.298,52.726 130.428,54.134 130.428,55.572C130.428,68.502 119.93,78.999 107,79L107,3.072Z" style="fill:rgb(239,88,78);"/>
        </g>
        <path d="M234.216,117.124L237.946,119.158L252.202,172.361C260.07,201.725 242.618,231.952 213.255,239.82L160.052,254.075L156.322,252.041L149.136,225.225C143.063,226.065 137.079,224.575 132.214,221.352C125.611,218.457 120.334,212.699 118.325,205.2C114.814,192.097 122.601,178.608 135.704,175.097L127.81,145.636L157.272,137.741L161.002,139.775C162.616,145.798 166.338,150.698 171.162,153.894C176.096,156.058 181.771,156.623 187.375,155.121C200.478,151.61 208.265,138.122 204.754,125.018L234.216,117.124Z" style="fill:rgb(22,22,22);fill-opacity:0.360784;"/>
        <path d="M238.644,133.648L248.472,170.327C256.34,199.691 238.888,229.918 209.525,237.786L172.845,247.614L156.322,252.041L148.427,222.58C135.324,226.091 121.836,218.303 118.325,205.2C114.814,192.097 122.601,178.608 135.704,175.097L127.81,145.636L157.272,137.741C160.783,150.845 174.272,158.632 187.375,155.121C200.478,151.61 208.265,138.122 204.754,125.018L234.216,117.124L238.644,133.648Z" style="fill:rgb(38,144,216);"/>
        <g transform="matrix(1.01339,-0.271537,0.271537,1.01339,-9.96788,65.1711)">
            <path d="M212,124.378L212,160.572C212,189.548 188.476,213.072 159.5,213.072L123.306,213.072L212,124.378Z" style="fill:rgb(38,144,216);"/>
        </g>
        <path d="M50.903,113.141L4.681,113.141L4.681,58.061C4.682,27.662 29.361,2.982 59.761,2.981L114.84,2.981L114.84,33.482C126.897,33.483 136.937,42.182 139.002,53.648L105.983,53.648L139.002,53.648C139.283,55.075 139.419,56.552 139.419,58.061C139.419,71.626 128.406,82.64 114.84,82.64L114.84,113.141L84.339,113.141C84.256,99.492 73.275,88.562 59.761,88.562C57.983,88.562 56.25,88.751 54.565,89.125C60.565,73.261 73.732,60.901 90.113,55.973C67.44,62.793 50.904,83.844 50.903,108.728L50.903,113.141ZM90.26,55.929L90.151,55.961L90.37,55.896L90.26,55.929ZM91.091,55.689C90.868,55.751 90.646,55.815 90.424,55.88C90.646,55.815 90.868,55.751 91.091,55.689ZM91.238,55.647L91.162,55.669L91.351,55.616L91.238,55.647ZM91.566,55.557L91.45,55.589L91.634,55.539L91.566,55.557ZM91.895,55.469L91.733,55.513L91.906,55.467L92.062,55.426L91.895,55.469ZM92.224,55.383L92.173,55.397L92.338,55.355L92.224,55.383ZM92.555,55.3L92.469,55.321L92.629,55.281L92.555,55.3ZM92.886,55.218L92.77,55.246L92.921,55.209L92.886,55.218ZM93.218,55.138L93.188,55.145L93.325,55.112L93.218,55.138ZM93.55,55.06L93.487,55.074L93.629,55.042L93.55,55.06ZM93.884,54.984L93.793,55.004L93.928,54.974L93.884,54.984ZM94.218,54.91L94.146,54.926L94.215,54.911L94.294,54.893L94.218,54.91ZM94.553,54.838L94.508,54.847L94.634,54.821L94.553,54.838ZM94.888,54.768L94.815,54.783L94.941,54.757L94.888,54.768ZM95.225,54.7L95.146,54.716L95.244,54.697L95.225,54.7ZM95.562,54.634L95.534,54.64L95.64,54.62L95.562,54.634ZM95.9,54.571L95.842,54.582L95.96,54.56L95.9,54.571ZM96.238,54.509L96.164,54.523L96.268,54.504L96.238,54.509ZM96.577,54.45L96.566,54.452L96.635,54.44L96.577,54.45ZM96.917,54.392L96.874,54.399L96.984,54.381L96.917,54.392ZM97.258,54.337L97.191,54.347L97.299,54.33L97.258,54.337ZM97.599,54.283L97.555,54.29L97.607,54.282L97.599,54.283ZM97.942,54.232L97.912,54.236L98.009,54.222L97.942,54.232ZM98.284,54.183L98.227,54.191L98.335,54.176L98.284,54.183ZM98.628,54.136L98.564,54.145L98.648,54.133L98.628,54.136ZM98.972,54.091L98.956,54.093L99.029,54.084L98.972,54.091ZM99.317,54.048L99.271,54.054L99.375,54.041L99.317,54.048ZM99.662,54.008L99.597,54.015L99.694,54.004L99.662,54.008ZM100.008,53.969L100.007,53.969L100.017,53.968L100.008,53.969ZM100.355,53.933L100.321,53.936L100.418,53.926L100.355,53.933ZM100.702,53.898L100.643,53.904L100.746,53.894L100.702,53.898ZM101.05,53.866L100.997,53.871L101.063,53.865L101.05,53.866ZM101.398,53.837L101.378,53.838L101.46,53.832L101.398,53.837ZM101.748,53.809L101.697,53.813L101.802,53.805L101.748,53.809ZM102.097,53.783L102.034,53.788L102.124,53.782L102.097,53.783ZM102.448,53.76L102.44,53.76L102.486,53.758L102.448,53.76ZM102.799,53.739L102.759,53.741L102.861,53.735L102.799,53.739ZM103.15,53.72L103.088,53.723L103.189,53.718L103.15,53.72ZM103.502,53.703L103.467,53.705L103.509,53.703L103.502,53.703ZM103.855,53.688L103.828,53.69L103.919,53.686L103.855,53.688ZM104.208,53.676L104.153,53.678L104.259,53.675L104.208,53.676ZM104.562,53.666L104.501,53.668L104.582,53.666L104.562,53.666ZM104.917,53.658L104.903,53.658L104.971,53.657L104.917,53.658ZM105.271,53.653L105.226,53.653L105.331,53.652L105.271,53.653ZM105.627,53.649L105.562,53.65L105.66,53.649L105.627,53.649Z" style="fill:rgb(136,179,55);"/>
        <g transform="matrix(1.04914,0,0,1.04914,2.58272,-0.241546)">
            <path d="M46.057,108.072L2,108.072L2,55.572C2,26.596 25.524,3.072 54.5,3.072L107,3.072L107,32.144C118.492,32.145 128.062,40.437 130.03,51.366L98.557,51.366C69.582,51.366 46.058,74.89 46.057,103.866L46.057,108.072Z" style="fill:rgb(136,179,55);"/>
        </g>
        <path d="M50.781,222.502C24.639,218.27 4.681,195.557 4.681,168.221L4.681,113.141L35.182,113.141C35.182,101.353 43.499,91.492 54.565,89.125C56.25,88.751 57.983,88.562 59.761,88.562C73.274,88.562 84.255,99.492 84.339,113.141L114.84,113.141L114.84,143.642C101.275,143.642 90.262,154.655 90.262,168.221C90.262,181.786 101.275,192.799 114.84,192.799L114.84,223.3L59.761,223.3C56.805,223.3 53.904,223.067 51.088,222.551L50.781,222.502ZM50.963,106.154C50.946,106.522 50.932,106.892 50.923,107.262C50.932,106.891 50.946,106.522 50.963,106.154ZM51.172,103.267C51.146,103.538 51.121,103.809 51.098,104.08C51.121,103.809 51.146,103.538 51.172,103.267ZM52.503,95.582C52.478,95.683 52.453,95.784 52.429,95.885L52.429,95.884L52.503,95.582ZM52.579,95.282L52.569,95.322L52.579,95.282L52.653,94.997L52.579,95.282ZM53.159,93.195C53.118,93.33 53.078,93.466 53.039,93.601C53.079,93.466 53.119,93.33 53.159,93.195ZM54.026,90.562C53.948,90.778 53.873,90.993 53.798,91.21C53.873,90.993 53.948,90.778 54.026,90.562Z" style="fill:rgb(253,182,47);"/>
        <g transform="matrix(1.04914,0,0,1.04914,2.58272,-0.241546)">
            <path d="M49.548,85.181C47.27,90.989 46.057,97.287 46.057,103.866L46.057,108.072L77.928,108.072L46.057,108.072L46.057,208.866L46.234,212.357C21.173,208.447 2,186.731 2,160.572L2,108.072L31.072,108.072C31.073,96.836 39,87.437 49.548,85.181Z" style="fill:rgb(253,182,47);"/>
        </g>
        <g transform="matrix(1,0,0,1,46.2222,50.6666)">
            <path d="M68.618,31.973C82.184,31.973 93.197,20.96 93.197,7.394C93.197,5.886 93.061,4.408 92.779,2.981L169.92,2.981C172.875,2.981 175.777,3.215 178.592,3.731L178.778,7.394L178.778,62.474L148.277,62.474C148.235,76.081 137.237,87.053 123.698,87.053C110.133,87.053 99.119,76.04 99.119,62.474L68.618,62.474L68.618,31.973Z" style="fill:rgb(247,99,89);"/>
        </g>
        <g transform="matrix(1,0,0,1,46.2222,50.6666)">
            <path d="M8.343,38.458C16.183,17.727 36.263,2.982 59.761,2.981L92.779,2.981C93.061,4.408 93.197,5.886 93.197,7.394C93.197,20.96 82.184,31.973 68.618,31.973L68.618,62.474L38.117,62.474C38.034,48.826 27.052,37.895 13.539,37.895C11.761,37.895 10.028,38.085 8.343,38.458Z" style="fill:rgb(141,194,40);"/>
        </g>
        <path d="M50.903,108.728C50.903,101.826 52.176,95.219 54.565,89.125C56.25,88.751 57.983,88.562 59.761,88.562C73.275,88.562 84.256,99.492 84.339,113.141L114.84,113.141L114.84,143.642C101.275,143.642 90.262,154.655 90.262,168.221C90.262,181.786 101.275,192.799 114.84,192.799L114.84,223.3L59.761,223.3C56.805,223.3 53.904,223.067 51.088,222.551L50.903,218.887L50.903,108.728Z" style="fill:rgb(253,191,74);"/>
        <g transform="matrix(1.10473,0.637819,-0.640196,1.10885,80.3258,-83.9392)">
            <path d="M192.767,85.347L192.767,188.125L183.284,197.572L166.377,180.728C158.858,188.219 146.648,188.219 139.129,180.728C131.609,173.236 131.609,161.072 139.129,153.58L122.221,136.736L139.129,119.891C146.648,127.383 158.858,127.383 166.377,119.891C173.897,112.4 173.897,100.235 166.377,92.744L183.284,75.899L192.767,85.347Z" style="fill:rgb(67,152,209);"/>
        </g>
    </g>
    <defs>
        <linearGradient id="_Linear1" x1="0" y1="0" x2="1" y2="0" gradientUnits="userSpaceOnUse" gradientTransform="matrix(4.68934e-15,76.5827,-76.5827,4.68934e-15,358.476,122.945)"><stop offset="0" style="stop-color:white;stop-opacity:1"/><stop offset="1" style="stop-color:rgb(164,216,255);stop-opacity:1"/></linearGradient>
        <linearGradient id="_Linear2" x1="0" y1="0" x2="1" y2="0" gradientUnits="userSpaceOnUse" gradientTransform="matrix(4.68934e-15,76.5827,-76.5827,4.68934e-15,358.476,122.945)"><stop offset="0" style="stop-color:white;stop-opacity:1"/><stop offset="1" style="stop-color:rgb(164,216,255);stop-opacity:1"/></linearGradient>
        <linearGradient id="_Linear3" x1="0" y1="0" x2="1" y2="0" gradientUnits="userSpaceOnUse" gradientTransform="matrix(4.68934e-15,76.5827,-76.5827,4.68934e-15,358.476,122.945)"><stop offset="0" style="stop-color:white;stop-opacity:1"/><stop offset="1" style="stop-color:rgb(164,216,255);stop-opacity:1"/></linearGradient>
        <linearGradient id="_Linear4" x1="0" y1="0" x2="1" y2="0" gradientUnits="userSpaceOnUse" gradientTransform="matrix(4.68934e-15,76.5827,-76.5827,4.68934e-15,358.476,122.945)"><stop offset="0" style="stop-color:white;stop-opacity:1"/><stop offset="1" style="stop-color:rgb(164,216,255);stop-opacity:1"/></linearGradient>
        <linearGradient id="_Linear5" x1="0" y1="0" x2="1" y2="0" gradientUnits="userSpaceOnUse" gradientTransform="matrix(4.68934e-15,76.5827,-76.5827,4.68934e-15,358.476,122.945)"><stop offset="0" style="stop-color:white;stop-opacity:1"/><stop offset="1" style="stop-color:rgb(164,216,255);stop-opacity:1"/></linearGradient>
        <linearGradient id="_Linear6" x1="0" y1="0" x2="1" y2="0" gradientUnits="userSpaceOnUse" gradientTransform="matrix(4.68934e-15,76.5827,-76.5827,4.68934e-15,358.476,122.945)"><stop offset="0" style="stop-color:white;stop-opacity:1"/><stop offset="1" style="stop-color:rgb(164,216,255);stop-opacity:1"/></linearGradient>
        <linearGradient id="_Linear7" x1="0" y1="0" x2="1" y2="0" gradientUnits="userSpaceOnUse" gradientTransform="matrix(4.68934e-15,76.5827,-76.5827,4.68934e-15,358.476,122.945)"><stop offset="0" style="stop-color:white;stop-opacity:1"/><stop offset="1" style="stop-color:rgb(164,216,255);stop-opacity:1"/></linearGradient>
    </defs>
</svg>
